<?xml version="1.0" encoding="utf-8"?>
<!-- Generator: Adobe Illustrator 16.0.0, SVG Export Plug-In . SVG Version: 6.00 Build 0)  -->
<!DOCTYPE svg PUBLIC "-//W3C//DTD SVG 1.1//EN" "http://www.w3.org/Graphics/SVG/1.1/DTD/svg11.dtd">
<svg version="1.1" id="Layer_1" xmlns="http://www.w3.org/2000/svg" xmlns:xlink="http://www.w3.org/1999/xlink" x="0px" y="0px"
	 width="28px" height="28px" viewBox="0 0 28 28" enable-background="new 0 0 28 28" xml:space="preserve">
<g>
	<rect fill="none" width="28" height="28"/>
	<g>
		<path fill="#CCCCCC" d="M14,1.5c6.893,0,12.5,5.607,12.5,12.5S20.893,26.5,14,26.5S1.5,20.893,1.5,14S7.107,1.5,14,1.5 M14,0.5
			C6.545,0.5,0.5,6.544,0.5,14c0,7.456,6.045,13.5,13.5,13.5c7.456,0,13.5-6.044,13.5-13.5C27.5,6.544,21.456,0.5,14,0.5L14,0.5z"/>
		<polygon fill="#CCCCCC" points="13.225,20.018 8.059,16.043 9.277,14.458 12.775,17.148 18.51,8.848 20.156,9.985 		"/>
	</g>
</g>
</svg>
